<?xml version="1.0" encoding="utf-8"?>
<!-- Generator: Adobe Illustrator 26.5.0, SVG Export Plug-In . SVG Version: 6.00 Build 0)  -->
<svg version="1.1" id="レイヤー_1" xmlns="http://www.w3.org/2000/svg" xmlns:xlink="http://www.w3.org/1999/xlink" x="0px"
	 y="0px" viewBox="0 0 215.36 123.41" style="enable-background:new 0 0 215.36 123.41;" xml:space="preserve">
<style type="text/css">
	.st0{fill:none;stroke:#000000;stroke-miterlimit:10;}
</style>
<path class="st0" d="M2.5,24.12C2.68,16.54,7.71,9.55,14.38,5.94s14.7-4.13,22.13-2.61c5.82,1.19,11.58,3.74,15.41,8.28
	c8.21,9.74,4.49,25.5-4.58,34.44s-21.86,12.78-34.1,16.3c9.93,1.1,20.13,2.27,28.99,6.89c8.86,4.63,16.2,13.55,15.96,23.54
	c-0.18,7.41-4.59,14.34-10.67,18.57s-13.66,5.94-21.07,5.88c-5.36-0.04-10.84-1.02-15.41-3.81s-8.11-7.61-8.43-12.95"/>
<path class="st0" d="M109.77,5.67c-1.92,9.05-3.8,18.11-5.62,27.17c-1.82,9.07-3.6,18.15-5.33,27.23
	c-1.73,9.09-3.4,18.18-5.03,27.29s-3.21,18.22-4.74,27.34"/>
<path class="st0" d="M166.64,6.51c-1.12,11.19-2.97,22.3-5.51,33.25s-5.78,21.74-9.7,32.28c5.81-2.42,12.1-4.83,18.33-5.91
	c6.23-1.08,12.4-0.82,17.99,2.1c4.04,2.11,7.22,5.41,9.62,9.29c2.41,3.88,4.04,8.35,5.01,12.81c0.69,3.16,1.09,6.47,0.93,9.71
	c-0.15,3.23-0.86,6.39-2.38,9.25c-1.72,3.23-4.38,5.81-7.52,7.71c-3.13,1.9-6.75,3.12-10.37,3.64s-7.29,0.43-10.93-0.02
	c-3.64-0.45-7.26-1.26-10.81-2.18c-2.65-0.68-5.57-1.83-7.76-3.49s-3.65-3.83-3.36-6.54"/>
<path class="st0" d="M168.73,31.64c3.68,0.18,7.37,0.36,11.05,0.54c3.68,0.18,7.37,0.36,11.05,0.54c3.68,0.18,7.37,0.36,11.05,0.54
	c3.68,0.18,7.37,0.36,11.05,0.54"/>
</svg>
